<?xml version="1.0" standalone="no"?><!DOCTYPE svg PUBLIC "-//W3C//DTD SVG 1.1//EN" "http://www.w3.org/Graphics/SVG/1.1/DTD/svg11.dtd"><svg t="1596431532633" class="icon" viewBox="0 0 1024 1024" version="1.1" xmlns="http://www.w3.org/2000/svg" p-id="2098" xmlns:xlink="http://www.w3.org/1999/xlink" width="200" height="200"><defs><style type="text/css"></style></defs><path d="M0 0h1024v1024H0z" fill="#FFFFFF" p-id="2099"></path><path d="M341.333333 480m32 0l554.666667 0q32 0 32 32l0 0q0 32-32 32l-554.666667 0q-32 0-32-32l0 0q0-32 32-32Z" fill="#6B747C" p-id="2100"></path><path d="M341.333333 128m32 0l554.666667 0q32 0 32 32l0 0q0 32-32 32l-554.666667 0q-32 0-32-32l0 0q0-32 32-32Z" fill="#6B747C" p-id="2101"></path><path d="M341.333333 832m32 0l554.666667 0q32 0 32 32l0 0q0 32-32 32l-554.666667 0q-32 0-32-32l0 0q0-32 32-32Z" fill="#6B747C" p-id="2102"></path><path d="M64 480m32 0l149.333333 0q32 0 32 32l0 0q0 32-32 32l-149.333333 0q-32 0-32-32l0 0q0-32 32-32Z" fill="#6B747C" p-id="2103"></path><path d="M64 832m32 0l149.333333 0q32 0 32 32l0 0q0 32-32 32l-149.333333 0q-32 0-32-32l0 0q0-32 32-32Z" fill="#6B747C" p-id="2104"></path><path d="M64 128m32 0l149.333333 0q32 0 32 32l0 0q0 32-32 32l-149.333333 0q-32 0-32-32l0 0q0-32 32-32Z" fill="#6B747C" p-id="2105"></path></svg>